<svg width="32" height="31" viewBox="0 0 32 31" fill="none" xmlns="http://www.w3.org/2000/svg">
<g clip-path="url(#clip0_9_735)">
<path d="M30.75 21.3125C31.4404 21.3125 32 20.7704 32 20.1016V7.26562C32 4.59478 29.757 2.42188 27 2.42188H25.375V1.21094C25.375 0.542137 24.8154 0 24.125 0C23.4346 0 22.875 0.542137 22.875 1.21094V2.42188H17.1875V1.21094C17.1875 0.542137 16.6279 0 15.9375 0C15.2471 0 14.6875 0.542137 14.6875 1.21094V2.42188H9.0625V1.21094C9.0625 0.542137 8.50288 0 7.8125 0C7.12213 0 6.5625 0.542137 6.5625 1.21094V2.42188H5C2.243 2.42188 0 4.59478 0 7.26562V26.1562C0 28.8271 2.243 31 5 31H27C29.757 31 32 28.8271 32 26.1562C32 25.4874 31.4404 24.9453 30.75 24.9453C30.0596 24.9453 29.5 25.4874 29.5 26.1562C29.5 27.4917 28.3785 28.5781 27 28.5781H5C3.6215 28.5781 2.5 27.4917 2.5 26.1562V7.26562C2.5 5.9302 3.6215 4.84375 5 4.84375H6.5625V6.05469C6.5625 6.72349 7.12213 7.26562 7.8125 7.26562C8.50288 7.26562 9.0625 6.72349 9.0625 6.05469V4.84375H14.6875V6.05469C14.6875 6.72349 15.2471 7.26562 15.9375 7.26562C16.6279 7.26562 17.1875 6.72349 17.1875 6.05469V4.84375H22.875V6.05469C22.875 6.72349 23.4346 7.26562 24.125 7.26562C24.8154 7.26562 25.375 6.72349 25.375 6.05469V4.84375H27C28.3785 4.84375 29.5 5.9302 29.5 7.26562V20.1016C29.5 20.7704 30.0596 21.3125 30.75 21.3125Z" fill="black"/>
<path d="M7.8125 13.9258C8.50286 13.9258 9.0625 13.3836 9.0625 12.7148C9.0625 12.0461 8.50286 11.5039 7.8125 11.5039C7.12214 11.5039 6.5625 12.0461 6.5625 12.7148C6.5625 13.3836 7.12214 13.9258 7.8125 13.9258Z" fill="black"/>
<path d="M18.6875 13.9258C19.3779 13.9258 19.9375 13.3836 19.9375 12.7148C19.9375 12.0461 19.3779 11.5039 18.6875 11.5039C17.9971 11.5039 17.4375 12.0461 17.4375 12.7148C17.4375 13.3836 17.9971 13.9258 18.6875 13.9258Z" fill="black"/>
<path d="M24.125 13.9258C24.8154 13.9258 25.375 13.3836 25.375 12.7148C25.375 12.0461 24.8154 11.5039 24.125 11.5039C23.4346 11.5039 22.875 12.0461 22.875 12.7148C22.875 13.3836 23.4346 13.9258 24.125 13.9258Z" fill="black"/>
<path d="M7.8125 19.1934C8.50286 19.1934 9.0625 18.6512 9.0625 17.9824C9.0625 17.3136 8.50286 16.7715 7.8125 16.7715C7.12214 16.7715 6.5625 17.3136 6.5625 17.9824C6.5625 18.6512 7.12214 19.1934 7.8125 19.1934Z" fill="black"/>
<path d="M7.8125 24.4609C8.50286 24.4609 9.0625 23.9188 9.0625 23.25C9.0625 22.5812 8.50286 22.0391 7.8125 22.0391C7.12214 22.0391 6.5625 22.5812 6.5625 23.25C6.5625 23.9188 7.12214 24.4609 7.8125 24.4609Z" fill="black"/>
<path d="M13.25 13.9258C13.9404 13.9258 14.5 13.3836 14.5 12.7148C14.5 12.0461 13.9404 11.5039 13.25 11.5039C12.5596 11.5039 12 12.0461 12 12.7148C12 13.3836 12.5596 13.9258 13.25 13.9258Z" fill="black"/>
<path d="M13.25 19.1934C13.9404 19.1934 14.5 18.6512 14.5 17.9824C14.5 17.3136 13.9404 16.7715 13.25 16.7715C12.5596 16.7715 12 17.3136 12 17.9824C12 18.6512 12.5596 19.1934 13.25 19.1934Z" fill="black"/>
<path d="M13.25 24.4609C13.9404 24.4609 14.5 23.9188 14.5 23.25C14.5 22.5812 13.9404 22.0391 13.25 22.0391C12.5596 22.0391 12 22.5812 12 23.25C12 23.9188 12.5596 24.4609 13.25 24.4609Z" fill="black"/>
<path d="M18.6875 19.1934C19.3779 19.1934 19.9375 18.6512 19.9375 17.9824C19.9375 17.3136 19.3779 16.7715 18.6875 16.7715C17.9971 16.7715 17.4375 17.3136 17.4375 17.9824C17.4375 18.6512 17.9971 19.1934 18.6875 19.1934Z" fill="black"/>
<path d="M24.125 19.1934C24.8154 19.1934 25.375 18.6512 25.375 17.9824C25.375 17.3136 24.8154 16.7715 24.125 16.7715C23.4346 16.7715 22.875 17.3136 22.875 17.9824C22.875 18.6512 23.4346 19.1934 24.125 19.1934Z" fill="black"/>
<path d="M18.6875 24.4609C19.3779 24.4609 19.9375 23.9188 19.9375 23.25C19.9375 22.5812 19.3779 22.0391 18.6875 22.0391C17.9971 22.0391 17.4375 22.5812 17.4375 23.25C17.4375 23.9188 17.9971 24.4609 18.6875 24.4609Z" fill="black"/>
</g>
<defs>
<clipPath id="clip0_9_735">
<rect width="32" height="31" fill="white"/>
</clipPath>
</defs>
</svg>
