<svg width="44" height="44" viewBox="0 0 44 44" fill="none" xmlns="http://www.w3.org/2000/svg">
<path d="M20.1665 7.33337H7.33317C6.36071 7.33337 5.42808 7.71968 4.74045 8.40732C4.05281 9.09495 3.6665 10.0276 3.6665 11V36.6667C3.6665 37.6392 4.05281 38.5718 4.74045 39.2594C5.42808 39.9471 6.36071 40.3334 7.33317 40.3334H32.9998C33.9723 40.3334 34.9049 39.9471 35.5926 39.2594C36.2802 38.5718 36.6665 37.6392 36.6665 36.6667V23.8334" stroke="black" stroke-width="1.83333" stroke-linecap="round" stroke-linejoin="round"/>
<path d="M33.9165 4.5833C34.6458 3.85396 35.6351 3.44421 36.6665 3.44421C37.698 3.44421 38.6872 3.85396 39.4165 4.5833C40.1458 5.31265 40.5556 6.30185 40.5556 7.3333C40.5556 8.36475 40.1458 9.35396 39.4165 10.0833L21.9998 27.5L14.6665 29.3333L16.4998 22L33.9165 4.5833Z" stroke="black" stroke-width="1.83333" stroke-linecap="round" stroke-linejoin="round"/>
</svg>
