<svg width="29" height="31" viewBox="0 0 29 31" fill="none" xmlns="http://www.w3.org/2000/svg">
<path d="M27.7855 12.123L14.8689 0.282707C14.448 -0.102311 13.8008 -0.0929257 13.3917 0.303899L1.19262 12.1441C0.983789 12.3469 0.865723 12.6257 0.865723 12.9166V29.9236C0.865723 30.5181 1.34755 31 1.94212 31H10.912C11.5065 31 11.9884 30.5181 11.9884 29.9236V22.0301H17.0116V29.9236C17.0116 30.5181 17.4934 31 18.088 31H27.0579C27.6524 31 28.1343 30.5184 28.1343 29.9236V12.9167C28.1343 12.6149 28.008 12.3272 27.7855 12.123ZM25.9815 28.8472H19.1644V20.9537C19.1644 20.3592 18.6825 19.8773 18.088 19.8773H10.9121C10.3176 19.8773 9.83568 20.3592 9.83568 20.9537V28.8472H3.01853V13.372L14.1624 2.55606L25.9815 13.3903V28.8472H25.9815Z" fill="#3FDEAE"/>
</svg>
