<svg width="29" height="31" viewBox="0 0 29 31" fill="none" xmlns="http://www.w3.org/2000/svg">
<path d="M27.785 12.123L14.8684 0.282707C14.4475 -0.102311 13.8003 -0.0929257 13.3912 0.303899L1.19213 12.1441C0.983301 12.3469 0.865234 12.6257 0.865234 12.9166V29.9236C0.865234 30.5181 1.34707 31 1.94164 31H10.9115C11.506 31 11.9879 30.5181 11.9879 29.9236V22.0301H17.0111V29.9236C17.0111 30.5181 17.4929 31 18.0875 31H27.0574C27.6519 31 28.1338 30.5184 28.1338 29.9236V12.9167C28.1338 12.6149 28.0075 12.3272 27.785 12.123ZM25.981 28.8472H19.1639V20.9537C19.1639 20.3592 18.682 19.8773 18.0875 19.8773H10.9116C10.3171 19.8773 9.83519 20.3592 9.83519 20.9537V28.8472H3.01804V13.372L14.1619 2.55606L25.981 13.3903V28.8472H25.981Z" fill="#B3B4C3"/>
</svg>
