<svg width="31" height="28" viewBox="0 0 31 28" fill="none" xmlns="http://www.w3.org/2000/svg">
<path d="M2.40946 7.60962C1.2428 8.71025 -0.290528 11.2889 2.90945 12.7983" stroke="#3FDEAE" stroke-width="2"/>
<path d="M3.40948 12.7983C5.40948 10.1253 11.2095 5.15678 18.4095 6.66622" stroke="#3FDEAE" stroke-width="2"/>
<path d="M18.4095 6.66623C20.7428 4.30774 24.7095 1.38321 21.9095 8.55302" stroke="#3FDEAE" stroke-width="2"/>
<path d="M26.4095 12.7984C25.9095 11.5405 24.3095 8.93046 21.9095 8.5531" stroke="#3FDEAE" stroke-width="2"/>
<path d="M26.4095 12.7983L28.4095 13.27C29.2428 14.2134 30.4095 16.6663 28.4095 18.9304" stroke="#3FDEAE" stroke-width="2"/>
<path d="M25.9095 18.9304C27.0762 18.9304 29.2095 18.9304 28.4095 18.9304" stroke="#3FDEAE" stroke-width="2"/>
<path d="M22.9095 21.7606C23.7428 20.8172 25.5095 18.9304 25.9095 18.9304" stroke="#3FDEAE" stroke-width="2"/>
<path d="M18.4095 23.6474C20.5762 25.8487 24.5095 28.5531 22.9095 21.7606" stroke="#3FDEAE" stroke-width="2"/>
<path d="M11.4095 23.6473H18.4095" stroke="#3FDEAE" stroke-width="2"/>
<path d="M6.40951 21.7606C5.74284 25.0625 5.80951 30.0625 11.4095 23.6474" stroke="#3FDEAE" stroke-width="2"/>
<path d="M3.40946 12.7983C2.57613 14.8424 2.00946 19.4965 6.40945 21.7606" stroke="#3FDEAE" stroke-width="2"/>
<path d="M6.90948 7.60967C6.90948 3.67885 8.60948 -2.39033 15.4095 4.77948" stroke="#3FDEAE" stroke-width="2"/>
<path d="M21.7821 14.5175H21.9317" stroke="#3FDEAE" stroke-width="2" stroke-linecap="round"/>
<path d="M2.4165 7.59959V7.58643" stroke="#3FDEAE" stroke-width="2" stroke-linecap="round"/>
<path d="M3.12823 12.7207H3.1701" stroke="#3FDEAE" stroke-width="2" stroke-linecap="round"/>
<path d="M6.40753 21.7648C6.4096 21.7492 6.42155 21.7516 6.43546 21.7516" stroke="#3FDEAE" stroke-width="2" stroke-linecap="round"/>
<path d="M11.4312 23.7658C11.4312 23.7061 11.3893 23.7104 11.3893 23.6605" stroke="#3FDEAE" stroke-width="2" stroke-linecap="round"/>
<path d="M18.3527 23.7C18.3573 23.6653 18.3938 23.662 18.4085 23.6342" stroke="#3FDEAE" stroke-width="2" stroke-linecap="round"/>
<path d="M22.9578 21.7385C22.9549 21.7598 22.9258 21.7461 22.9159 21.7649" stroke="#3FDEAE" stroke-width="2" stroke-linecap="round"/>
<path d="M28.4329 18.783C28.4329 18.8058 28.4442 18.8365 28.4112 18.8454C28.3871 18.8519 28.3743 18.8832 28.3743 18.9046" stroke="#3FDEAE" stroke-width="2" stroke-linecap="round"/>
<path d="M28.3743 18.9047C28.3743 18.9134 28.3798 18.9172 28.386 18.9231" stroke="#3FDEAE" stroke-width="2" stroke-linecap="round"/>
<path d="M28.386 18.9231C28.3957 18.9312 28.3954 18.9415 28.4095 18.9415" stroke="#3FDEAE" stroke-width="2" stroke-linecap="round"/>
<path d="M26.429 12.7394C26.429 12.7567 26.4103 12.7869 26.3939 12.7947" stroke="#3FDEAE" stroke-width="2" stroke-linecap="round"/>
<path d="M22.1009 8.4093C22.0804 8.41145 22.0729 8.44764 22.0518 8.45332C22.0396 8.45662 22.0171 8.4679 22.008 8.47645C21.9951 8.48865 21.9799 8.49475 21.9661 8.50512C21.9531 8.51496 21.9505 8.54283 21.9407 8.55671" stroke="#3FDEAE" stroke-width="2" stroke-linecap="round"/>
<path d="M21.9525 8.50884C21.9446 8.50884 21.9286 8.50588 21.9251 8.51252" stroke="#3FDEAE" stroke-width="2" stroke-linecap="round"/>
<path d="M18.3157 6.58521C18.3232 6.59318 18.3227 6.60814 18.3305 6.61551C18.3393 6.6238 18.3461 6.62469 18.3539 6.63393C18.3704 6.65334 18.4021 6.64786 18.429 6.64786" stroke="#3FDEAE" stroke-width="2" stroke-linecap="round"/>
</svg>
