<svg width="31" height="28" viewBox="0 0 31 28" fill="none" xmlns="http://www.w3.org/2000/svg">
<path d="M2.40946 7.60962C1.2428 8.71025 -0.290528 11.2889 2.90945 12.7983" stroke="#B3B4C3" stroke-width="2"/>
<path d="M3.40967 12.7983C5.40967 10.1253 11.2097 5.15678 18.4097 6.66622" stroke="#B3B4C3" stroke-width="2"/>
<path d="M18.4097 6.66623C20.743 4.30774 24.7097 1.38321 21.9097 8.55302" stroke="#B3B4C3" stroke-width="2"/>
<path d="M26.4097 12.7984C25.9097 11.5405 24.3097 8.93046 21.9097 8.5531" stroke="#B3B4C3" stroke-width="2"/>
<path d="M26.4097 12.7983L28.4097 13.27C29.243 14.2134 30.4097 16.6663 28.4097 18.9304" stroke="#B3B4C3" stroke-width="2"/>
<path d="M25.9097 18.9304C27.0763 18.9304 29.2097 18.9304 28.4097 18.9304" stroke="#B3B4C3" stroke-width="2"/>
<path d="M22.9097 21.7606C23.743 20.8172 25.5097 18.9304 25.9097 18.9304" stroke="#B3B4C3" stroke-width="2"/>
<path d="M18.4097 23.6474C20.5763 25.8487 24.5097 28.5531 22.9097 21.7606" stroke="#B3B4C3" stroke-width="2"/>
<path d="M11.4097 23.6473H18.4097" stroke="#B3B4C3" stroke-width="2"/>
<path d="M6.40957 21.7606C5.7429 25.0625 5.80957 30.0625 11.4096 23.6474" stroke="#B3B4C3" stroke-width="2"/>
<path d="M3.40946 12.7983C2.57613 14.8424 2.00946 19.4965 6.40945 21.7606" stroke="#B3B4C3" stroke-width="2"/>
<path d="M6.90967 7.60967C6.90967 3.67885 8.60967 -2.39033 15.4097 4.77948" stroke="#B3B4C3" stroke-width="2"/>
<path d="M21.7822 14.5175H21.9319" stroke="#B3B4C3" stroke-width="2" stroke-linecap="round"/>
<path d="M2.4165 7.59959V7.58643" stroke="#B3B4C3" stroke-width="2" stroke-linecap="round"/>
<path d="M3.12842 12.7207H3.17028" stroke="#B3B4C3" stroke-width="2" stroke-linecap="round"/>
<path d="M6.40771 21.7648C6.40978 21.7492 6.42173 21.7516 6.43564 21.7516" stroke="#B3B4C3" stroke-width="2" stroke-linecap="round"/>
<path d="M11.431 23.7658C11.431 23.7061 11.3892 23.7104 11.3892 23.6605" stroke="#B3B4C3" stroke-width="2" stroke-linecap="round"/>
<path d="M18.3525 23.7C18.3571 23.6653 18.3936 23.662 18.4084 23.6342" stroke="#B3B4C3" stroke-width="2" stroke-linecap="round"/>
<path d="M22.9579 21.7385C22.9551 21.7598 22.926 21.7461 22.916 21.7649" stroke="#B3B4C3" stroke-width="2" stroke-linecap="round"/>
<path d="M28.4331 18.783C28.4331 18.8058 28.4444 18.8365 28.4114 18.8454C28.3873 18.8519 28.3745 18.8832 28.3745 18.9046" stroke="#B3B4C3" stroke-width="2" stroke-linecap="round"/>
<path d="M28.3745 18.9047C28.3745 18.9134 28.3799 18.9172 28.3862 18.9231" stroke="#B3B4C3" stroke-width="2" stroke-linecap="round"/>
<path d="M28.3862 18.9231C28.3959 18.9312 28.3956 18.9415 28.4097 18.9415" stroke="#B3B4C3" stroke-width="2" stroke-linecap="round"/>
<path d="M26.4292 12.7394C26.4292 12.7567 26.4104 12.7869 26.394 12.7947" stroke="#B3B4C3" stroke-width="2" stroke-linecap="round"/>
<path d="M22.1011 8.4093C22.0806 8.41145 22.0731 8.44764 22.052 8.45332C22.0398 8.45662 22.0173 8.4679 22.0082 8.47645C21.9953 8.48865 21.98 8.49475 21.9663 8.50512C21.9533 8.51496 21.9507 8.54283 21.9409 8.55671" stroke="#B3B4C3" stroke-width="2" stroke-linecap="round"/>
<path d="M21.9526 8.50884C21.9448 8.50884 21.9288 8.50588 21.9253 8.51252" stroke="#B3B4C3" stroke-width="2" stroke-linecap="round"/>
<path d="M18.3159 6.58521C18.3234 6.59318 18.3229 6.60814 18.3307 6.61551C18.3395 6.6238 18.3463 6.62469 18.3541 6.63393C18.3706 6.65334 18.4023 6.64786 18.4292 6.64786" stroke="#B3B4C3" stroke-width="2" stroke-linecap="round"/>
</svg>
