<?xml version="1.0" encoding="utf-8"?>
<!-- Generator: Adobe Illustrator 24.3.0, SVG Export Plug-In . SVG Version: 6.00 Build 0)  -->
<svg version="1.1" id="Слой_1" xmlns="http://www.w3.org/2000/svg" xmlns:xlink="http://www.w3.org/1999/xlink" x="0px" y="0px"
	 viewBox="0 0 31 28" style="enable-background:new 0 0 31 28;" xml:space="preserve">
<style type="text/css">
	.st0{fill:#B3B4C3;}
</style>
<path class="st0" d="M1.8,25.9L1.8,25.9c-0.5-0.3-0.7-0.9-0.4-1.4l6.8-11.7c0.3-0.6,1.1-0.7,1.6-0.3l7.1,5.8
	c0.5,0.4,1.3,0.3,1.6-0.3l9.2-15.6C27.9,1.9,28.5,1.7,29,2l0,0c0.5,0.3,0.7,0.9,0.4,1.4L18.9,20.5c-0.3,0.6-2,0.5-2.5,0.1l-6.2-4.9
	c-0.5-0.4-1.3-0.3-1.6,0.3l-5.5,9.6C2.9,26,2.3,26.2,1.8,25.9z"/>
<path class="st0" d="M23.9,3.4c2.9-1.1,5.7-2.2,5.7-2.2L30.2,7"/>
<polyline class="st0" points="6.4,26.2 6.5,19.8 9.4,12.8 9.4,26.2 "/>
<polyline class="st0" points="12.6,26.2 12.5,15.7 15.4,18 15.4,26.2 "/>
<polyline class="st0" points="21.4,12.9 21.4,26.1 18.5,26.1 18.6,18.6 21.2,14 "/>
<polyline class="st0" points="24.4,26.1 24.4,11 27.4,4.9 27.4,26.1 "/>
</svg>
