<svg width="25" height="25" viewBox="0 0 25 25" fill="none" xmlns="http://www.w3.org/2000/svg">
<g clip-path="url(#clip0_434_897)">
<path d="M12.5 0.25C5.735 0.25 0.25 5.735 0.25 12.5C0.25 19.265 5.735 24.75 12.5 24.75C19.265 24.75 24.75 19.265 24.75 12.5C24.75 5.735 19.265 0.25 12.5 0.25ZM20.105 20.105C19.1175 21.0925 17.9675 21.87 16.685 22.41C15.36 22.97 13.9525 23.255 12.5 23.255C11.0475 23.255 9.64 22.97 8.315 22.41C7.035 21.8675 5.885 21.0925 4.895 20.105C3.9075 19.1175 3.13 17.9675 2.59 16.685C2.03 15.36 1.745 13.9525 1.745 12.5C1.745 11.0475 2.03 9.64 2.59 8.315C3.1325 7.035 3.9075 5.885 4.895 4.895C5.8825 3.905 7.0325 3.13 8.315 2.59C9.64 2.03 11.0475 1.745 12.5 1.745C13.9525 1.745 15.36 2.03 16.685 2.59C17.965 3.1325 19.115 3.9075 20.105 4.895C21.095 5.8825 21.87 7.0325 22.41 8.315C22.97 9.64 23.255 11.0475 23.255 12.5C23.255 13.9525 22.97 15.36 22.41 16.685C21.87 17.9675 21.0925 19.1175 20.105 20.105Z" fill="black"/>
<path d="M18.8525 9.77743H18.8275L18.8775 9.68743L14.15 7.08493C13.7875 6.88493 13.335 7.01743 13.135 7.37993C13.0725 7.49493 13.0425 7.61743 13.0425 7.73993C13.0425 8.00493 13.1825 8.25993 13.43 8.39493L15.9425 9.77743H6.2C5.7875 9.77743 5.4525 10.1124 5.4525 10.5249C5.4525 10.9374 5.7875 11.2724 6.2 11.2724H18.8525C19.265 11.2724 19.6 10.9374 19.6 10.5249C19.6 10.1124 19.265 9.77743 18.8525 9.77743Z" fill="black"/>
<path d="M18.8525 13.2949H6.2C5.7875 13.2949 5.4525 13.6299 5.4525 14.0424C5.4525 14.3924 5.6925 14.6874 6.02 14.7674C6.065 14.8099 6.1175 14.8499 6.175 14.8799L10.5675 17.2974C10.6825 17.3599 10.805 17.3899 10.9275 17.3899C11.19 17.3899 11.4475 17.2499 11.5825 17.0024C11.645 16.8874 11.675 16.7649 11.675 16.6424C11.675 16.3774 11.535 16.1224 11.2875 15.9874L9.11 14.7899H18.8525C19.265 14.7899 19.6 14.4549 19.6 14.0424C19.6 13.6299 19.265 13.2949 18.8525 13.2949Z" fill="black"/>
</g>
<defs>
<clipPath id="clip0_434_897">
<rect width="25" height="25" fill="white"/>
</clipPath>
</defs>
</svg>
