<svg width="31" height="30" viewBox="0 0 31 30" fill="none" xmlns="http://www.w3.org/2000/svg">
<g clip-path="url(#clip0_194_717)">
<path d="M28.1648 7.87104H27.779V4.33725C27.779 2.86241 26.5072 1.66248 24.9438 1.66248H4.37956C2.11028 1.66248 0.239257 3.29996 0.0232716 5.38814C-0.00971348 5.5357 0.00203215 4.22093 0.00203215 24.585C0.00203215 26.8622 1.96574 28.7147 4.3795 28.7147H28.1647C29.7281 28.7147 31 27.5149 31 26.04V10.5458C31 9.07098 29.7281 7.87104 28.1648 7.87104V7.87104ZM4.37956 3.49976H24.9438C25.4333 3.49976 25.8316 3.87547 25.8316 4.33731V7.8711H4.37956C3.07762 7.8711 2.01181 6.90007 1.95242 5.68543C2.01175 4.47074 3.07756 3.49976 4.37956 3.49976V3.49976ZM28.1648 26.8775H4.37956C3.03965 26.8775 1.94955 25.8491 1.94955 24.585V9.01207C2.64522 9.45169 3.48117 9.70827 4.37956 9.70827H28.1648C28.6543 9.70827 29.0526 10.084 29.0526 10.5458V14.27H21.7247C19.2291 14.27 17.1988 16.1854 17.1988 18.5397C17.1988 20.8941 19.2291 22.8094 21.7247 22.8094H29.0526V26.04C29.0526 26.5018 28.6543 26.8775 28.1648 26.8775V26.8775ZM29.0526 20.9723H21.7247C20.303 20.9723 19.1462 19.8811 19.1462 18.5398C19.1462 17.1985 20.3029 16.1073 21.7247 16.1073H29.0526V20.9723Z" fill="#B3B4C3"/>
<path d="M22.0841 19.8711C22.8635 19.8711 23.4953 19.2751 23.4953 18.5398C23.4953 17.8045 22.8635 17.2085 22.0841 17.2085C21.3047 17.2085 20.6729 17.8045 20.6729 18.5398C20.6729 19.2751 21.3047 19.8711 22.0841 19.8711Z" fill="#B3B4C3"/>
</g>
<defs>
<clipPath id="clip0_194_717">
<rect width="31" height="29.2453" fill="white" transform="translate(0 0.56604)"/>
</clipPath>
</defs>
</svg>
