<svg width="31" height="31" viewBox="0 0 31 31" fill="none" xmlns="http://www.w3.org/2000/svg">
<g clip-path="url(#clip0_9_725)">
<path d="M28.1648 7.74331H27.779V3.99749C27.779 2.43417 26.5072 1.16223 24.9438 1.16223H4.37956C2.11028 1.16223 0.239257 2.89797 0.0232717 5.11144C-0.00971348 5.26785 0.00203215 3.87419 0.00203215 25.4602C0.00203215 27.8739 1.96574 29.8376 4.3795 29.8376H28.1647C29.7281 29.8376 31 28.5658 31 27.0024V10.5786C31 9.01525 29.7281 7.74331 28.1648 7.74331ZM4.37956 3.10975H24.9438C25.4333 3.10975 25.8316 3.50801 25.8316 3.99755V7.74337H4.37956C3.07762 7.74337 2.01181 6.71408 1.95242 5.42656C2.01175 4.13899 3.07756 3.10975 4.37956 3.10975ZM28.1648 27.8902H4.37956C3.03965 27.8902 1.94955 26.8001 1.94955 25.4602V8.95281C2.64522 9.4188 3.48117 9.69077 4.37956 9.69077H28.1648C28.6543 9.69077 29.0526 10.089 29.0526 10.5786V14.5262H21.7247C19.2291 14.5262 17.1988 16.5565 17.1988 19.0521C17.1988 21.5477 19.2291 23.578 21.7247 23.578H29.0526V27.0024C29.0526 27.4919 28.6543 27.8902 28.1648 27.8902ZM29.0526 21.6306H21.7247C20.303 21.6306 19.1462 20.4739 19.1462 19.0522C19.1462 17.6304 20.3029 16.4737 21.7247 16.4737H29.0526V21.6306Z" fill="black"/>
<path d="M22.084 20.4634C22.8634 20.4634 23.4952 19.8315 23.4952 19.0522C23.4952 18.2728 22.8634 17.641 22.084 17.641C21.3047 17.641 20.6729 18.2728 20.6729 19.0522C20.6729 19.8315 21.3047 20.4634 22.084 20.4634Z" fill="black"/>
</g>
<defs>
<clipPath id="clip0_9_725">
<rect width="31" height="31" fill="white"/>
</clipPath>
</defs>
</svg>
